<svg xmlns="http://www.w3.org/2000/svg" width="282" height="112" viewBox="0 0 282 112">
  <g id="Design" transform="translate(-46 -677)">
    <g id="world-financial" transform="translate(37.223 682.043)">
      <path id="Path_354" data-name="Path 354" d="M111.362,70.851l.665-.105a51.287,51.287,0,0,1-8.808,27.365l-.243-.628h-1.864l1.025,2.167-.524.706a51.617,51.617,0,0,1-29.344,19.112l-1.5-.837-2.755,1.644a50.959,50.959,0,0,1-5.942.525l0,0-1.614-1.091L58.849,120.8v0a50.964,50.964,0,0,1-5.939-.525l-3.116-1.986-1.138,1.179a51.61,51.61,0,0,1-29.51-19.336l.009-2.649H17.29A51.288,51.288,0,0,1,8.9,70.851l1.218-1.973L8.9,67.623a51.312,51.312,0,0,1,8.386-26.631l0,0,1.855-.42V38.344a51.61,51.61,0,0,1,29.51-19.336v0l1.138,1.177L52.91,18.2a50.966,50.966,0,0,1,5.939-.525v0l1.614,1.091,1.614-1.091,0,0a51,51,0,0,1,5.944.525l0,0,2.755,1.642,1.5-.835,0,0a51.608,51.608,0,0,1,29.517,19.338l0,0v1.81l1.855.841,0-.006a51.321,51.321,0,0,1,8.406,27.358l-.68-.723-1.216,1.255Z" transform="translate(-0.098 -13.872)" fill="#90d3f1"/>
      <path id="Path_355" data-name="Path 355" d="M19.624,81.259c0-20.038,8.949-37.721,22.59-48.265A51.72,51.72,0,0,0,19.145,50.365V52.6l-1.855.42,0,0A51.312,51.312,0,0,0,8.9,79.645L10.12,80.9,8.9,82.873A51.288,51.288,0,0,0,17.29,109.5h1.864l-.009,2.649a51.72,51.72,0,0,0,23.068,17.371C28.573,118.98,19.624,101.3,19.624,81.259Z" transform="translate(-0.098 -25.894)" fill="#59c2e7"/>
      <path id="Path_356" data-name="Path 356" d="M86.6,47.852a70.372,70.372,0,0,0,16.851-6.894c.031-.018.06-.039.09-.059q-.888-1.354-1.855-2.651A67.366,67.366,0,0,1,85.746,44.7q-.723-2.477-1.6-4.891A67.023,67.023,0,0,0,72.172,18.915q-2.095-.491-4.253-.807a1.609,1.609,0,0,0,.416,1.361A62.589,62.589,0,0,1,81.116,40.911q.819,2.259,1.5,4.579a98.524,98.524,0,0,1-20.634,2.478V17.584c-.536-.017-1.074-.028-1.614-.028s-1.078.011-1.614.028V47.968A98.51,98.51,0,0,1,38.117,45.49q.681-2.319,1.5-4.58A62.588,62.588,0,0,1,52.4,19.469a1.61,1.61,0,0,0,.416-1.361q-2.157.316-4.253.807A67.024,67.024,0,0,0,36.579,39.809q-.875,2.412-1.6,4.891a67.361,67.361,0,0,1-15.936-6.451q-.969,1.294-1.855,2.651c.029.02.059.04.09.059a70.372,70.372,0,0,0,16.851,6.894,87.479,87.479,0,0,0-2.54,19.677H8.8c-.017.536-.028,1.074-.028,1.614s.011,1.078.028,1.614H31.593a87.481,87.481,0,0,0,2.54,19.677,70.365,70.365,0,0,0-16.851,6.894c-.031.018-.06.039-.09.058q.888,1.355,1.855,2.651a67.377,67.377,0,0,1,15.936-6.451q.723,2.476,1.6,4.891a67.028,67.028,0,0,0,11.979,20.895q2.095.491,4.253.807a1.609,1.609,0,0,0-.416-1.361A62.589,62.589,0,0,1,39.613,97.376q-.819-2.259-1.5-4.58a98.524,98.524,0,0,1,20.634-2.478V120.7c.536.017,1.074.028,1.614.028s1.078-.011,1.614-.028V90.319A98.52,98.52,0,0,1,82.613,92.8q-.681,2.319-1.5,4.58a62.586,62.586,0,0,1-12.782,21.441,1.61,1.61,0,0,0-.416,1.361q2.157-.316,4.253-.807A67.014,67.014,0,0,0,84.15,98.477q.875-2.412,1.6-4.891a67.366,67.366,0,0,1,15.936,6.451q.969-1.294,1.855-2.651c-.029-.02-.058-.04-.09-.058A70.362,70.362,0,0,0,86.6,90.435a87.479,87.479,0,0,0,2.54-19.677h22.789c.017-.536.028-1.074.028-1.614s-.011-1.078-.028-1.614H89.136A87.491,87.491,0,0,0,86.6,47.852ZM58.751,87.09a101.285,101.285,0,0,0-21.488,2.554,84.256,84.256,0,0,1-2.441-18.887H58.751Zm0-19.56H34.822a84.252,84.252,0,0,1,2.441-18.886A101.312,101.312,0,0,0,58.751,51.2ZM83.467,89.644A101.3,101.3,0,0,0,61.979,87.09V70.757H85.908a84.255,84.255,0,0,1-2.441,18.887ZM61.979,67.529V51.2a101.3,101.3,0,0,0,21.488-2.554,84.266,84.266,0,0,1,2.441,18.886H61.979Z" transform="translate(0 -13.778)" fill="#5c84d9"/>
      <path id="Path_357" data-name="Path 357" d="M101.072,0A13.891,13.891,0,0,0,87.181,13.891c0,17.606,13.891,27.955,13.891,27.955S114.963,31.5,114.963,13.891A13.891,13.891,0,0,0,101.072,0Z" transform="translate(-61.532)" fill="#ff748f"/>
      <path id="Path_358" data-name="Path 358" d="M310.535,230.846c0,17.606,13.891,27.955,13.891,27.955s13.891-10.349,13.891-27.955a13.891,13.891,0,1,0-27.782,0Z" transform="translate(-236.82 -170.267)" fill="#ff748f"/>
      <circle id="Ellipse_20" data-name="Ellipse 20" cx="6.314" cy="6.314" r="6.314" transform="translate(31.297 12.68) rotate(-22.514)" fill="#fff"/>
      <circle id="Ellipse_21" data-name="Ellipse 21" cx="6.314" cy="6.314" r="6.314" transform="translate(81.292 56.478)" fill="#fff"/>
      <g id="Group_52" data-name="Group 52" transform="translate(8.777 24.471)">
        <path id="Path_359" data-name="Path 359" d="M19.525,251.391q0-.81.02-1.614H8.8c-.017.536-.028,1.074-.028,1.614s.011,1.078.028,1.614H19.546Q19.527,252.2,19.525,251.391Z" transform="translate(-8.777 -220.497)" fill="#4677d4"/>
        <path id="Path_360" data-name="Path 360" d="M55.048,119.949q.623-1.506,1.317-2.965a58.49,58.49,0,0,1-6.627-3.269q-.969,1.294-1.855,2.651c.029.02.059.04.09.059A62.756,62.756,0,0,0,55.048,119.949Z" transform="translate(-39.468 -113.715)" fill="#4677d4"/>
        <path id="Path_361" data-name="Path 361" d="M55.049,371.871a62.752,62.752,0,0,0-7.075,3.525c-.031.018-.06.039-.09.058q.888,1.355,1.855,2.651a58.487,58.487,0,0,1,6.627-3.269Q55.671,373.378,55.049,371.871Z" transform="translate(-39.468 -316.316)" fill="#4677d4"/>
      </g>
    </g>
    <g id="Group_24" data-name="Group 24" transform="translate(159.552 677.446)">
      <text id="TeVi" transform="translate(0.448 90.554)" fill="#fff" font-size="84" font-family="SegoeUI-Bold, Segoe UI" font-weight="700"><tspan x="0" y="0">TeVi</tspan></text>
    </g>
  </g>
</svg>
