<svg xmlns="http://www.w3.org/2000/svg" xmlns:xlink="http://www.w3.org/1999/xlink" width="331.979" height="96.538" viewBox="0 0 331.979 96.538">
  <defs>
    <filter id="Path_6" x="0" y="0" width="331.979" height="96.538" filterUnits="userSpaceOnUse">
      <feOffset dy="3" input="SourceAlpha"/>
      <feGaussianBlur stdDeviation="5" result="blur"/>
      <feFlood flood-opacity="0.161"/>
      <feComposite operator="in" in2="blur"/>
      <feComposite in="SourceGraphic"/>
    </filter>
    <filter id="Rectangle_27" x="5.269" y="5.269" width="109" height="86" filterUnits="userSpaceOnUse">
      <feOffset dy="3" input="SourceAlpha"/>
      <feGaussianBlur stdDeviation="3" result="blur-2"/>
      <feFlood flood-opacity="0.161"/>
      <feComposite operator="in" in2="blur-2"/>
      <feComposite in="SourceGraphic"/>
    </filter>
  </defs>
  <g id="Group_12" data-name="Group 12" transform="translate(-1035.731 -791.731)">
    <g transform="matrix(1, 0, 0, 1, 1035.73, 791.73)" filter="url(#Path_6)">
      <path id="Path_6-2" data-name="Path 6" d="M33.269,0H268.71a33.269,33.269,0,1,1,0,66.538H33.269A33.269,33.269,0,0,1,33.269,0Z" transform="translate(15 12)" fill="#2c58e3"/>
    </g>
    <g transform="matrix(1, 0, 0, 1, 1035.73, 791.73)" filter="url(#Rectangle_27)">
      <rect id="Rectangle_27-2" data-name="Rectangle 27" width="91" height="68" rx="34" transform="translate(14.27 11.27)" fill="#fff"/>
    </g>
    <text id="_STEP_03" data-name="     STEP 
  03" transform="translate(1068 827)" fill="#2c58e3" font-size="11" font-family="SegoeUI-Bold, Segoe UI" font-weight="700"><tspan x="0" y="0" xml:space="preserve">     STEP </tspan><tspan font-size="20"><tspan x="0" y="22" xml:space="preserve">  </tspan><tspan y="22" font-size="29">03</tspan></tspan></text>
    <text id="NEXT" transform="translate(1179 849)" fill="#fff" font-size="29" font-family="SegoeUI-Bold, Segoe UI" font-weight="700"><tspan x="0" y="0">NEXT</tspan></text>
  </g>
</svg>
