<svg xmlns="http://www.w3.org/2000/svg" xmlns:xlink="http://www.w3.org/1999/xlink" width="879" height="698" viewBox="0 0 879 698">
  <defs>
    <filter id="Path_2" x="391.592" y="51.782" width="112.517" height="112.517" filterUnits="userSpaceOnUse">
      <feOffset dy="3" input="SourceAlpha"/>
      <feGaussianBlur stdDeviation="3" result="blur"/>
      <feFlood flood-opacity="0.161"/>
      <feComposite operator="in" in2="blur"/>
      <feComposite in="SourceGraphic"/>
    </filter>
    <filter id="Path_4" x="477.079" y="279.588" width="151.667" height="151.667" filterUnits="userSpaceOnUse">
      <feOffset dy="3" input="SourceAlpha"/>
      <feGaussianBlur stdDeviation="3" result="blur-2"/>
      <feFlood flood-opacity="0.161"/>
      <feComposite operator="in" in2="blur-2"/>
      <feComposite in="SourceGraphic"/>
    </filter>
    <filter id="Path_3" x="388.507" y="523.34" width="126.138" height="126.138" filterUnits="userSpaceOnUse">
      <feOffset dy="3" input="SourceAlpha"/>
      <feGaussianBlur stdDeviation="3" result="blur-3"/>
      <feFlood flood-opacity="0.161"/>
      <feComposite operator="in" in2="blur-3"/>
      <feComposite in="SourceGraphic"/>
    </filter>
    <filter id="Rectangle_20" x="492" y="20" width="262" height="117" filterUnits="userSpaceOnUse">
      <feOffset dy="3" input="SourceAlpha"/>
      <feGaussianBlur stdDeviation="3" result="blur-4"/>
      <feFlood flood-opacity="0.161"/>
      <feComposite operator="in" in2="blur-4"/>
      <feComposite in="SourceGraphic"/>
    </filter>
    <filter id="Rectangle_23" x="617" y="333" width="262" height="117" filterUnits="userSpaceOnUse">
      <feOffset dy="3" input="SourceAlpha"/>
      <feGaussianBlur stdDeviation="3" result="blur-5"/>
      <feFlood flood-opacity="0.161"/>
      <feComposite operator="in" in2="blur-5"/>
      <feComposite in="SourceGraphic"/>
    </filter>
    <filter id="Rectangle_24" x="480" y="581" width="262" height="117" filterUnits="userSpaceOnUse">
      <feOffset dy="3" input="SourceAlpha"/>
      <feGaussianBlur stdDeviation="3" result="blur-6"/>
      <feFlood flood-opacity="0.161"/>
      <feComposite operator="in" in2="blur-6"/>
      <feComposite in="SourceGraphic"/>
    </filter>
    <filter id="Subtraction_1" x="217.785" y="130.898" width="221.692" height="441.557" filterUnits="userSpaceOnUse">
      <feOffset input="SourceAlpha"/>
      <feGaussianBlur stdDeviation="10" result="blur-7"/>
      <feFlood flood-opacity="0.161"/>
      <feComposite operator="in" in2="blur-7"/>
      <feComposite in="SourceGraphic"/>
    </filter>
    <filter id="Subtraction_6" x="217.785" y="354.089" width="218.992" height="218.365" filterUnits="userSpaceOnUse">
      <feOffset input="SourceAlpha"/>
      <feGaussianBlur stdDeviation="10" result="blur-8"/>
      <feFlood flood-opacity="0.161"/>
      <feComposite operator="in" in2="blur-8"/>
      <feComposite in="SourceGraphic"/>
    </filter>
    <filter id="Subtraction_9" x="218" y="238" width="222" height="218" filterUnits="userSpaceOnUse">
      <feOffset input="SourceAlpha"/>
      <feGaussianBlur stdDeviation="10" result="blur-9"/>
      <feFlood flood-opacity="0.161"/>
      <feComposite operator="in" in2="blur-9"/>
      <feComposite in="SourceGraphic"/>
    </filter>
    <filter id="Ellipse_1" x="0" y="148" width="413" height="408" filterUnits="userSpaceOnUse">
      <feOffset input="SourceAlpha"/>
      <feGaussianBlur stdDeviation="7" result="blur-10"/>
      <feFlood flood-opacity="0.161"/>
      <feComposite operator="in" in2="blur-10"/>
      <feComposite in="SourceGraphic"/>
    </filter>
    <filter id="Subtraction_11" x="198" y="82" width="290" height="551" filterUnits="userSpaceOnUse">
      <feOffset dx="6" dy="6" input="SourceAlpha"/>
      <feGaussianBlur stdDeviation="5" result="blur-11"/>
      <feFlood flood-opacity="0.161"/>
      <feComposite operator="in" in2="blur-11"/>
      <feComposite in="SourceGraphic"/>
    </filter>
    <filter id="Ellipse_9" x="356" y="137" width="59" height="60" filterUnits="userSpaceOnUse">
      <feOffset dy="3" input="SourceAlpha"/>
      <feGaussianBlur stdDeviation="3" result="blur-12"/>
      <feFlood flood-opacity="0.161"/>
      <feComposite operator="in" in2="blur-12"/>
      <feComposite in="SourceGraphic"/>
    </filter>
    <filter id="Ellipse_17" x="439" y="0" width="110" height="113" filterUnits="userSpaceOnUse">
      <feOffset dy="3" input="SourceAlpha"/>
      <feGaussianBlur stdDeviation="3" result="blur-13"/>
      <feFlood flood-opacity="0.161"/>
      <feComposite operator="in" in2="blur-13"/>
      <feComposite in="SourceGraphic"/>
    </filter>
    <filter id="Ellipse_18" x="590" y="298" width="110" height="113" filterUnits="userSpaceOnUse">
      <feOffset dy="3" input="SourceAlpha"/>
      <feGaussianBlur stdDeviation="3" result="blur-14"/>
      <feFlood flood-opacity="0.161"/>
      <feComposite operator="in" in2="blur-14"/>
      <feComposite in="SourceGraphic"/>
    </filter>
    <filter id="Ellipse_19" x="444" y="549" width="110" height="113" filterUnits="userSpaceOnUse">
      <feOffset dy="3" input="SourceAlpha"/>
      <feGaussianBlur stdDeviation="3" result="blur-15"/>
      <feFlood flood-opacity="0.161"/>
      <feComposite operator="in" in2="blur-15"/>
      <feComposite in="SourceGraphic"/>
    </filter>
    <filter id="Ellipse_13" x="363" y="145" width="45" height="45" filterUnits="userSpaceOnUse">
      <feOffset dy="3" input="SourceAlpha"/>
      <feGaussianBlur stdDeviation="3" result="blur-16"/>
      <feFlood flood-opacity="0.161"/>
      <feComposite operator="in" in2="blur-16"/>
      <feComposite in="SourceGraphic"/>
    </filter>
    <filter id="Ellipse_11" x="437" y="325" width="60" height="60" filterUnits="userSpaceOnUse">
      <feOffset dy="3" input="SourceAlpha"/>
      <feGaussianBlur stdDeviation="3" result="blur-17"/>
      <feFlood flood-opacity="0.161"/>
      <feComposite operator="in" in2="blur-17"/>
      <feComposite in="SourceGraphic"/>
    </filter>
    <filter id="Ellipse_12" x="356" y="508" width="59" height="60" filterUnits="userSpaceOnUse">
      <feOffset dy="3" input="SourceAlpha"/>
      <feGaussianBlur stdDeviation="3" result="blur-18"/>
      <feFlood flood-opacity="0.161"/>
      <feComposite operator="in" in2="blur-18"/>
      <feComposite in="SourceGraphic"/>
    </filter>
    <filter id="Ellipse_10" x="185" y="593" width="43" height="42" filterUnits="userSpaceOnUse">
      <feOffset dy="3" input="SourceAlpha"/>
      <feGaussianBlur stdDeviation="3" result="blur-19"/>
      <feFlood flood-opacity="0.161"/>
      <feComposite operator="in" in2="blur-19"/>
      <feComposite in="SourceGraphic"/>
    </filter>
    <filter id="Ellipse_16" x="185" y="75" width="43" height="42" filterUnits="userSpaceOnUse">
      <feOffset dy="3" input="SourceAlpha"/>
      <feGaussianBlur stdDeviation="3" result="blur-20"/>
      <feFlood flood-opacity="0.161"/>
      <feComposite operator="in" in2="blur-20"/>
      <feComposite in="SourceGraphic"/>
    </filter>
    <filter id="Ellipse_14" x="444" y="333" width="45" height="44" filterUnits="userSpaceOnUse">
      <feOffset dy="3" input="SourceAlpha"/>
      <feGaussianBlur stdDeviation="3" result="blur-21"/>
      <feFlood flood-opacity="0.161"/>
      <feComposite operator="in" in2="blur-21"/>
      <feComposite in="SourceGraphic"/>
    </filter>
    <filter id="Ellipse_15" x="363" y="516" width="45" height="45" filterUnits="userSpaceOnUse">
      <feOffset dy="3" input="SourceAlpha"/>
      <feGaussianBlur stdDeviation="3" result="blur-22"/>
      <feFlood flood-opacity="0.161"/>
      <feComposite operator="in" in2="blur-22"/>
      <feComposite in="SourceGraphic"/>
    </filter>
    <filter id="_STEP_03" x="455" y="569" width="79" height="74" filterUnits="userSpaceOnUse">
      <feOffset dy="3" input="SourceAlpha"/>
      <feGaussianBlur stdDeviation="3" result="blur-23"/>
      <feFlood flood-opacity="0.161"/>
      <feComposite operator="in" in2="blur-23"/>
      <feComposite in="SourceGraphic"/>
    </filter>
    <filter id="_STEP_02" x="598" y="318" width="79" height="74" filterUnits="userSpaceOnUse">
      <feOffset dy="3" input="SourceAlpha"/>
      <feGaussianBlur stdDeviation="3" result="blur-24"/>
      <feFlood flood-opacity="0.161"/>
      <feComposite operator="in" in2="blur-24"/>
      <feComposite in="SourceGraphic"/>
    </filter>
    <filter id="_STEP_01" x="449" y="20" width="79" height="74" filterUnits="userSpaceOnUse">
      <feOffset dy="3" input="SourceAlpha"/>
      <feGaussianBlur stdDeviation="3" result="blur-25"/>
      <feFlood flood-opacity="0.161"/>
      <feComposite operator="in" in2="blur-25"/>
      <feComposite in="SourceGraphic"/>
    </filter>
    <filter id="TeVi" x="110" y="240" width="191" height="134" filterUnits="userSpaceOnUse">
      <feOffset dy="3" input="SourceAlpha"/>
      <feGaussianBlur stdDeviation="3" result="blur-26"/>
      <feFlood flood-opacity="0.161"/>
      <feComposite operator="in" in2="blur-26"/>
      <feComposite in="SourceGraphic"/>
    </filter>
    <filter id="Line_3" x="105.5" y="352" width="83" height="21" filterUnits="userSpaceOnUse">
      <feOffset dy="3" input="SourceAlpha"/>
      <feGaussianBlur stdDeviation="3" result="blur-27"/>
      <feFlood flood-opacity="0.161"/>
      <feComposite operator="in" in2="blur-27"/>
      <feComposite in="SourceGraphic"/>
    </filter>
    <filter id="Line_5" x="170.5" y="352" width="83" height="21" filterUnits="userSpaceOnUse">
      <feOffset dy="3" input="SourceAlpha"/>
      <feGaussianBlur stdDeviation="3" result="blur-28"/>
      <feFlood flood-opacity="0.161"/>
      <feComposite operator="in" in2="blur-28"/>
      <feComposite in="SourceGraphic"/>
    </filter>
    <filter id="Line_6" x="235.5" y="352" width="83" height="21" filterUnits="userSpaceOnUse">
      <feOffset dy="3" input="SourceAlpha"/>
      <feGaussianBlur stdDeviation="3" result="blur-29"/>
      <feFlood flood-opacity="0.161"/>
      <feComposite operator="in" in2="blur-29"/>
      <feComposite in="SourceGraphic"/>
    </filter>
  </defs>
  <g id="Group_8" data-name="Group 8" transform="translate(-23 -236)">
    <g transform="matrix(1, 0, 0, 1, 23, 236)" filter="url(#Path_2)">
      <path id="Path_2-2" data-name="Path 2" d="M0,92.4l3.97-3.97L92.4,0" transform="translate(401.65 58.84)" fill="none" stroke="#fff" stroke-width="3" opacity="0.25"/>
    </g>
    <g transform="matrix(1, 0, 0, 1, 23, 236)" filter="url(#Path_4)">
      <path id="Path_4-2" data-name="Path 4" d="M0,92.4l3.97-3.97L92.4,0" transform="translate(552.91 287.09) rotate(45)" fill="none" stroke="#fff" stroke-width="3" opacity="0.25"/>
    </g>
    <g transform="matrix(1, 0, 0, 1, 23, 236)" filter="url(#Path_3)">
      <path id="Path_3-2" data-name="Path 3" d="M0,92.4l3.97-3.97L92.4,0" transform="translate(489.98 530.55) rotate(81)" fill="none" stroke="#fff" stroke-width="3"/>
    </g>
    <g transform="matrix(1, 0, 0, 1, 23, 236)" filter="url(#Rectangle_20)">
      <rect id="Rectangle_20-2" data-name="Rectangle 20" width="244" height="99" rx="28" transform="translate(501 26)" fill="#76adf6" opacity="0.25"/>
    </g>
    <g transform="matrix(1, 0, 0, 1, 23, 236)" filter="url(#Rectangle_23)">
      <rect id="Rectangle_23-2" data-name="Rectangle 23" width="244" height="99" rx="28" transform="translate(626 339)" fill="#2c58e3" opacity="0.25"/>
    </g>
    <g transform="matrix(1, 0, 0, 1, 23, 236)" filter="url(#Rectangle_24)">
      <rect id="Rectangle_24-2" data-name="Rectangle 24" width="244" height="99" rx="28" transform="translate(489 587)" fill="#271f8e"/>
    </g>
    <g transform="matrix(1, 0, 0, 1, 23, 236)" filter="url(#Subtraction_1)">
      <path id="Subtraction_1-2" data-name="Subtraction 1" d="M0,381.557H0V0A192.581,192.581,0,0,1,33.282,8.6,192.947,192.947,0,0,1,63.96,22.685,194.345,194.345,0,0,1,91.468,41.692a195.065,195.065,0,0,1,23.774,23.364,194.463,194.463,0,0,1,19.474,27.155,193.08,193.08,0,0,1,14.61,30.382,192.624,192.624,0,0,1,12.366,68.185,192.624,192.624,0,0,1-12.366,68.185,193.079,193.079,0,0,1-14.61,30.382A194.465,194.465,0,0,1,115.242,316.5a195.077,195.077,0,0,1-23.774,23.364A194.353,194.353,0,0,1,63.96,358.872a192.95,192.95,0,0,1-30.678,14.086A192.587,192.587,0,0,1,0,381.557Z" transform="translate(247.78 160.9)" fill="#78b0fa"/>
    </g>
    <g transform="matrix(1, 0, 0, 1, 23, 236)" filter="url(#Subtraction_6)">
      <path id="Subtraction_6-2" data-name="Subtraction 6" d="M0,158.365H0V0H158.992a192.413,192.413,0,0,1-9.666,35.771,193.092,193.092,0,0,1-14.61,30.383,194.419,194.419,0,0,1-19.475,27.155,195.021,195.021,0,0,1-23.774,23.364A194.385,194.385,0,0,1,63.96,135.68a192.991,192.991,0,0,1-30.678,14.086A192.633,192.633,0,0,1,0,158.365Z" transform="translate(247.79 384.09)" fill="#2a2299"/>
    </g>
    <g transform="matrix(1, 0, 0, 1, 23, 236)" filter="url(#Subtraction_9)">
      <path id="Subtraction_9-2" data-name="Subtraction 9" d="M146.618,158H0V0H142.532c2.61,5.274,4.991,10.711,7.078,16.162A187.337,187.337,0,0,1,162,83.41a187.335,187.335,0,0,1-12.39,67.247c-.939,2.451-1.945,4.921-2.992,7.342Z" transform="translate(248 268)" fill="#2d59e4"/>
    </g>
    <g transform="matrix(1, 0, 0, 1, 23, 236)" filter="url(#Ellipse_1)">
      <ellipse id="Ellipse_1-2" data-name="Ellipse 1" cx="185.5" cy="183" rx="185.5" ry="183" transform="translate(21 169)" fill="#fff"/>
    </g>
    <g transform="matrix(1, 0, 0, 1, 23, 236)" filter="url(#Subtraction_11)">
      <path id="Subtraction_11-2" data-name="Subtraction 11" d="M0,521H0v-4.471a253.736,253.736,0,0,0,180.6-74.964A253.986,253.986,0,0,0,255.53,260.873C255.53,119.9,140.9,5.217,0,5.217V0C8.759.012,17.59.465,26.249,1.345A260.79,260.79,0,0,1,52.1,5.292a259,259,0,0,1,48.874,15.179A260.4,260.4,0,0,1,145.2,44.489,262.345,262.345,0,0,1,183.739,76.3a262.312,262.312,0,0,1,31.794,38.554,260.549,260.549,0,0,1,24.006,44.25A259.237,259.237,0,0,1,254.711,208a261.38,261.38,0,0,1,3.945,25.865A264.676,264.676,0,0,1,260,260.5a264.675,264.675,0,0,1-1.344,26.635A261.319,261.319,0,0,1,254.711,313a259.254,259.254,0,0,1-15.172,48.9,260.578,260.578,0,0,1-24.006,44.25A262.344,262.344,0,0,1,183.739,444.7,262.264,262.264,0,0,1,145.2,476.511a260.374,260.374,0,0,1-44.229,24.018A259,259,0,0,1,52.1,515.708a260.994,260.994,0,0,1-25.853,3.947C17.594,520.535,8.763,520.987,0,521Z" transform="translate(207 91)" fill="#fff"/>
    </g>
    <g transform="matrix(1, 0, 0, 1, 23, 236)" filter="url(#Ellipse_9)">
      <ellipse id="Ellipse_9-2" data-name="Ellipse 9" cx="20.5" cy="21" rx="20.5" ry="21" transform="translate(365 143)" fill="#fff"/>
    </g>
    <g transform="matrix(1, 0, 0, 1, 23, 236)" filter="url(#Ellipse_17)">
      <ellipse id="Ellipse_17-2" data-name="Ellipse 17" cx="46" cy="47.5" rx="46" ry="47.5" transform="translate(448 6)" fill="#fff" opacity="0.25"/>
    </g>
    <g transform="matrix(1, 0, 0, 1, 23, 236)" filter="url(#Ellipse_18)">
      <ellipse id="Ellipse_18-2" data-name="Ellipse 18" cx="46" cy="47.5" rx="46" ry="47.5" transform="translate(599 304)" fill="#fff" opacity="0.25"/>
    </g>
    <g transform="matrix(1, 0, 0, 1, 23, 236)" filter="url(#Ellipse_19)">
      <ellipse id="Ellipse_19-2" data-name="Ellipse 19" cx="46" cy="47.5" rx="46" ry="47.5" transform="translate(453 555)" fill="#fff"/>
    </g>
    <g transform="matrix(1, 0, 0, 1, 23, 236)" filter="url(#Ellipse_13)">
      <circle id="Ellipse_13-2" data-name="Ellipse 13" cx="13.5" cy="13.5" r="13.5" transform="translate(372 151)" fill="#76adf6"/>
    </g>
    <g transform="matrix(1, 0, 0, 1, 23, 236)" filter="url(#Ellipse_11)">
      <circle id="Ellipse_11-2" data-name="Ellipse 11" cx="21" cy="21" r="21" transform="translate(446 331)" fill="#fff"/>
    </g>
    <g transform="matrix(1, 0, 0, 1, 23, 236)" filter="url(#Ellipse_12)">
      <ellipse id="Ellipse_12-2" data-name="Ellipse 12" cx="20.5" cy="21" rx="20.5" ry="21" transform="translate(365 514)" fill="#fff"/>
    </g>
    <g transform="matrix(1, 0, 0, 1, 23, 236)" filter="url(#Ellipse_10)">
      <ellipse id="Ellipse_10-2" data-name="Ellipse 10" cx="12.5" cy="12" rx="12.5" ry="12" transform="translate(194 599)" fill="#fff"/>
    </g>
    <g transform="matrix(1, 0, 0, 1, 23, 236)" filter="url(#Ellipse_16)">
      <ellipse id="Ellipse_16-2" data-name="Ellipse 16" cx="12.5" cy="12" rx="12.5" ry="12" transform="translate(194 81)" fill="#fff"/>
    </g>
    <g transform="matrix(1, 0, 0, 1, 23, 236)" filter="url(#Ellipse_14)">
      <ellipse id="Ellipse_14-2" data-name="Ellipse 14" cx="13.5" cy="13" rx="13.5" ry="13" transform="translate(453 339)" fill="#2c58e3"/>
    </g>
    <g transform="matrix(1, 0, 0, 1, 23, 236)" filter="url(#Ellipse_15)">
      <circle id="Ellipse_15-2" data-name="Ellipse 15" cx="13.5" cy="13.5" r="13.5" transform="translate(372 522)" fill="#271f8e"/>
    </g>
    <g transform="matrix(1, 0, 0, 1, 23, 236)" filter="url(#_STEP_03)">
      <text id="_STEP_03-2" data-name="     STEP 
  03" transform="translate(464 591)" fill="#271f8e" font-size="15" font-family="SegoeUI-Bold, Segoe UI" font-weight="700"><tspan x="0" y="0" xml:space="preserve">     STEP </tspan><tspan font-size="27"><tspan x="0" y="30" xml:space="preserve">  </tspan><tspan y="30" font-size="40">03</tspan></tspan></text>
    </g>
    <g transform="matrix(1, 0, 0, 1, 23, 236)" filter="url(#_STEP_02)">
      <text id="_STEP_02-2" data-name="     STEP 
  02" transform="translate(607 340)" fill="#2c58e3" font-size="15" font-family="SegoeUI-Bold, Segoe UI" font-weight="700" opacity="0.25"><tspan x="0" y="0" xml:space="preserve">     STEP </tspan><tspan font-size="27"><tspan x="0" y="30" xml:space="preserve">  </tspan><tspan y="30" font-size="40">02</tspan></tspan></text>
    </g>
    <g transform="matrix(1, 0, 0, 1, 23, 236)" filter="url(#_STEP_01)">
      <text id="_STEP_01-2" data-name="     STEP 
  01" transform="translate(458 42)" fill="#76adf6" font-size="15" font-family="SegoeUI-Bold, Segoe UI" font-weight="700" opacity="0.25"><tspan x="0" y="0" xml:space="preserve">     STEP </tspan><tspan font-size="27"><tspan x="0" y="30" xml:space="preserve">  </tspan><tspan y="30" font-size="40">01</tspan></tspan></text>
    </g>
    <g transform="matrix(1, 0, 0, 1, 23, 236)" filter="url(#TeVi)">
      <text id="TeVi-2" data-name="TeVi" transform="translate(119 340)" fill="#2344ab" font-size="87" font-family="SegoeUI-Bold, Segoe UI" font-weight="700"><tspan x="0" y="0">TeVi</tspan></text>
    </g>
    <g id="Group_2" data-name="Group 2" transform="translate(2 -415)">
      <g transform="matrix(1, 0, 0, 1, 21, 651)" filter="url(#Line_3)">
        <line id="Line_3-2" data-name="Line 3" x2="65" transform="translate(114.5 359.5)" fill="none" stroke="#76adf6" stroke-width="3"/>
      </g>
      <g transform="matrix(1, 0, 0, 1, 21, 651)" filter="url(#Line_5)">
        <line id="Line_5-2" data-name="Line 5" x2="65" transform="translate(179.5 359.5)" fill="none" stroke="#2c58e3" stroke-width="3"/>
      </g>
      <g transform="matrix(1, 0, 0, 1, 21, 651)" filter="url(#Line_6)">
        <line id="Line_6-2" data-name="Line 6" x2="65" transform="translate(244.5 359.5)" fill="none" stroke="#271f8e" stroke-width="3"/>
      </g>
    </g>
    <text id="Choose_how_to_view_the_data" data-name="Choose how 
to view the 
data" transform="translate(651 293)" fill="#fff" font-size="21" font-family="SegoeUI-Bold, Segoe UI" font-weight="700" opacity="0.25"><tspan x="-62.918" y="0">Choose how </tspan><tspan x="-57.97" y="28">to view the </tspan><tspan x="-21.887" y="56">data</tspan></text>
    <text id="Select_data" data-name="Select data" transform="translate(775 630)" fill="#fff" font-size="21" font-family="SegoeUI-Bold, Segoe UI" font-weight="700" opacity="0.25"><tspan x="-54.141" y="0">Select data</tspan></text>
    <text id="Choose_the_restrictions" data-name="Choose the
restrictions" transform="translate(641 866)" fill="#fff" font-size="21" font-family="SegoeUI-Bold, Segoe UI" font-weight="700"><tspan x="-54.997" y="0">Choose the</tspan><tspan x="-55.228" y="28">restrictions</tspan></text>
    <text id="TEVI_IS_A_FLEXIBLE_WEB_DATA_VISUALIZER_REGARDING_WORLDWIDE_TERRORISM" data-name="TEVI IS A FLEXIBLE WEB DATA
 VISUALIZER REGARDING 
WORLDWIDE TERRORISM" transform="translate(229 632)" fill="rgba(153,153,153,0.92)" font-size="10" font-family="SegoeUI, Segoe UI"><tspan x="-64.817" y="0">TEVI IS A FLEXIBLE WEB DATA</tspan><tspan x="-56.968" y="15" xml:space="preserve"> VISUALIZER REGARDING </tspan><tspan x="-56.892" y="30">WORLDWIDE TERRORISM</tspan></text>
  </g>
</svg>
