<svg xmlns="http://www.w3.org/2000/svg" width="195.35" height="104" viewBox="0 0 195.35 104">
  <g id="Group_6" data-name="Group 6" transform="translate(-1288 -354.001)">
    <g id="Group_5" data-name="Group 5" transform="translate(174 -54)">
      <path id="Subtraction_26" data-name="Subtraction 26" d="M69.449,99.834H39.35c0-.117,0-.235,0-.351A68.114,68.114,0,0,0,0,37.938V0A96.457,96.457,0,0,1,9.911,3.621,97.191,97.191,0,0,1,26.5,12.756a98.652,98.652,0,0,1,14.455,12.1A99.4,99.4,0,0,1,52.886,39.519a99.488,99.488,0,0,1,9.006,16.83,99.6,99.6,0,0,1,5.691,18.6,101.162,101.162,0,0,1,1.985,19.968c0,1.635-.04,3.289-.118,4.918Z" transform="translate(1239.783 412.166)" fill="#06234a"/>
      <path id="Subtraction_23" data-name="Subtraction 23" d="M13.128,58.323v0h0L0,24.121a98.813,98.813,0,0,1,9.263-7.2A97.259,97.259,0,0,1,25.854,7.786a96.54,96.54,0,0,1,76.039,0,97.219,97.219,0,0,1,16.592,9.135,98.687,98.687,0,0,1,14.455,12.1c.327.331.657.671.982,1.011L100.7,46.96A67.706,67.706,0,0,0,13.129,58.322Z" transform="translate(1147.802 408.001)" fill="#2d6ec5"/>
      <path id="Subtraction_16" data-name="Subtraction 16" d="M29.514,79.879H.118C.04,78.234,0,76.58,0,74.96A101.21,101.21,0,0,1,1.985,54.992,99.319,99.319,0,0,1,28.609,4.9C30.27,3.214,32.017,1.566,33.8,0L46.93,34.2A67.646,67.646,0,0,0,29.514,79.528q0,.082,0,.164V79.7q0,.088,0,.176Z" transform="translate(1114 432.122)" fill="#76adf6"/>
    </g>
    <text id="_563" data-name="563" transform="translate(1386 451)" fill="#8daeda" font-size="28" font-family="SegoeUI-Bold, Segoe UI" font-weight="700"><tspan x="-24.158" y="0">563</tspan></text>
  </g>
</svg>
