<svg xmlns="http://www.w3.org/2000/svg" xmlns:xlink="http://www.w3.org/1999/xlink" width="938" height="604" viewBox="0 0 938 604">
  <defs>
    <clipPath id="clip-path">
      <rect width="18" height="502" fill="none"/>
    </clipPath>
    <clipPath id="clip-path-2">
      <rect width="851" height="34" fill="none"/>
    </clipPath>
  </defs>
  <g id="chart" transform="translate(-360 -390)">
    <g id="bg" transform="translate(-4 -100)">
      <line id="Line_47" data-name="Line 47" y2="530" transform="translate(412 500)" fill="none" stroke="#edf3ff" stroke-width="3"/>
      <g id="Group_37" data-name="Group 37" transform="translate(412 500)">
        <line id="Line_48" data-name="Line 48" x1="890" fill="none" stroke="#edf3ff" stroke-width="3"/>
        <line id="Line_48-2" data-name="Line 48" x1="890" transform="translate(0 53)" fill="none" stroke="#edf3ff" stroke-width="3"/>
        <line id="Line_48-3" data-name="Line 48" x1="890" transform="translate(0 106)" fill="none" stroke="#edf3ff" stroke-width="3"/>
        <line id="Line_48-4" data-name="Line 48" x1="890" transform="translate(0 159)" fill="none" stroke="#edf3ff" stroke-width="3"/>
        <line id="Line_48-5" data-name="Line 48" x1="890" transform="translate(0 212)" fill="none" stroke="#edf3ff" stroke-width="3"/>
        <line id="Line_48-6" data-name="Line 48" x1="890" transform="translate(0 265)" fill="none" stroke="#edf3ff" stroke-width="3"/>
        <line id="Line_48-7" data-name="Line 48" x1="890" transform="translate(0 318)" fill="none" stroke="#edf3ff" stroke-width="3"/>
        <line id="Line_48-8" data-name="Line 48" x1="890" transform="translate(0 371)" fill="none" stroke="#edf3ff" stroke-width="3"/>
        <line id="Line_48-9" data-name="Line 48" x1="890" transform="translate(0 424)" fill="none" stroke="#edf3ff" stroke-width="3"/>
        <line id="Line_48-10" data-name="Line 48" x1="890" transform="translate(0 477)" fill="none" stroke="#edf3ff" stroke-width="3"/>
        <line id="Line_48-11" data-name="Line 48" x1="890" transform="translate(0 530)" fill="none" stroke="#edf3ff" stroke-width="3"/>
      </g>
    </g>
    <g id="Repeat_Grid_1" data-name="Repeat Grid 1" transform="translate(360 390)" clip-path="url(#clip-path)">
      <g transform="translate(-361 -390)">
        <text id="_10" data-name="10" transform="translate(361 407)" fill="#707070" font-size="16" font-family="SegoeUI, Segoe UI"><tspan x="0" y="0">10</tspan></text>
      </g>
      <g transform="translate(-361 -337)">
        <text id="_10-2" data-name="10" transform="translate(361 407)" fill="#707070" font-size="16" font-family="SegoeUI, Segoe UI"><tspan x="0" y="0">10</tspan></text>
      </g>
      <g transform="translate(-361 -284)">
        <text id="_10-3" data-name="10" transform="translate(361 407)" fill="#707070" font-size="16" font-family="SegoeUI, Segoe UI"><tspan x="0" y="0">10</tspan></text>
      </g>
      <g transform="translate(-361 -231)">
        <text id="_10-4" data-name="10" transform="translate(361 407)" fill="#707070" font-size="16" font-family="SegoeUI, Segoe UI"><tspan x="0" y="0">10</tspan></text>
      </g>
      <g transform="translate(-361 -178)">
        <text id="_10-5" data-name="10" transform="translate(361 407)" fill="#707070" font-size="16" font-family="SegoeUI, Segoe UI"><tspan x="0" y="0">10</tspan></text>
      </g>
      <g transform="translate(-361 -125)">
        <text id="_10-6" data-name="10" transform="translate(361 407)" fill="#707070" font-size="16" font-family="SegoeUI, Segoe UI"><tspan x="0" y="0">10</tspan></text>
      </g>
      <g transform="translate(-361 -72)">
        <text id="_10-7" data-name="10" transform="translate(361 407)" fill="#707070" font-size="16" font-family="SegoeUI, Segoe UI"><tspan x="0" y="0">10</tspan></text>
      </g>
      <g transform="translate(-361 -19)">
        <text id="_10-8" data-name="10" transform="translate(361 407)" fill="#707070" font-size="16" font-family="SegoeUI, Segoe UI"><tspan x="0" y="0">10</tspan></text>
      </g>
      <g transform="translate(-361 34)">
        <text id="_10-9" data-name="10" transform="translate(361 407)" fill="#707070" font-size="16" font-family="SegoeUI, Segoe UI"><tspan x="0" y="0">10</tspan></text>
      </g>
      <g transform="translate(-361 87)">
        <text id="_10-10" data-name="10" transform="translate(361 407)" fill="#707070" font-size="16" font-family="SegoeUI, Segoe UI"><tspan x="0" y="0">10</tspan></text>
      </g>
    </g>
    <g id="Repeat_Grid_2" data-name="Repeat Grid 2" transform="translate(447 960)" clip-path="url(#clip-path-2)">
      <g transform="translate(-361 -390)">
        <text id="_10-11" data-name="10" transform="translate(361 407)" fill="#707070" font-size="16" font-family="SegoeUI, Segoe UI"><tspan x="0" y="0">10</tspan></text>
      </g>
      <g transform="translate(-311 -390)">
        <text id="_10-12" data-name="10" transform="translate(361 407)" fill="#707070" font-size="16" font-family="SegoeUI, Segoe UI"><tspan x="0" y="0">10</tspan></text>
      </g>
      <g transform="translate(-261 -390)">
        <text id="_10-13" data-name="10" transform="translate(361 407)" fill="#707070" font-size="16" font-family="SegoeUI, Segoe UI"><tspan x="0" y="0">10</tspan></text>
      </g>
      <g transform="translate(-211 -390)">
        <text id="_10-14" data-name="10" transform="translate(361 407)" fill="#707070" font-size="16" font-family="SegoeUI, Segoe UI"><tspan x="0" y="0">10</tspan></text>
      </g>
      <g transform="translate(-161 -390)">
        <text id="_10-15" data-name="10" transform="translate(361 407)" fill="#707070" font-size="16" font-family="SegoeUI, Segoe UI"><tspan x="0" y="0">10</tspan></text>
      </g>
      <g transform="translate(-111 -390)">
        <text id="_10-16" data-name="10" transform="translate(361 407)" fill="#707070" font-size="16" font-family="SegoeUI, Segoe UI"><tspan x="0" y="0">10</tspan></text>
      </g>
      <g transform="translate(-61 -390)">
        <text id="_10-17" data-name="10" transform="translate(361 407)" fill="#707070" font-size="16" font-family="SegoeUI, Segoe UI"><tspan x="0" y="0">10</tspan></text>
      </g>
      <g transform="translate(-11 -390)">
        <text id="_10-18" data-name="10" transform="translate(361 407)" fill="#707070" font-size="16" font-family="SegoeUI, Segoe UI"><tspan x="0" y="0">10</tspan></text>
      </g>
      <g transform="translate(39 -390)">
        <text id="_10-19" data-name="10" transform="translate(361 407)" fill="#707070" font-size="16" font-family="SegoeUI, Segoe UI"><tspan x="0" y="0">10</tspan></text>
      </g>
      <g transform="translate(89 -390)">
        <text id="_10-20" data-name="10" transform="translate(361 407)" fill="#707070" font-size="16" font-family="SegoeUI, Segoe UI"><tspan x="0" y="0">10</tspan></text>
      </g>
      <g transform="translate(139 -390)">
        <text id="_10-21" data-name="10" transform="translate(361 407)" fill="#707070" font-size="16" font-family="SegoeUI, Segoe UI"><tspan x="0" y="0">10</tspan></text>
      </g>
      <g transform="translate(189 -390)">
        <text id="_10-22" data-name="10" transform="translate(361 407)" fill="#707070" font-size="16" font-family="SegoeUI, Segoe UI"><tspan x="0" y="0">10</tspan></text>
      </g>
      <g transform="translate(239 -390)">
        <text id="_10-23" data-name="10" transform="translate(361 407)" fill="#707070" font-size="16" font-family="SegoeUI, Segoe UI"><tspan x="0" y="0">10</tspan></text>
      </g>
      <g transform="translate(289 -390)">
        <text id="_10-24" data-name="10" transform="translate(361 407)" fill="#707070" font-size="16" font-family="SegoeUI, Segoe UI"><tspan x="0" y="0">10</tspan></text>
      </g>
      <g transform="translate(339 -390)">
        <text id="_10-25" data-name="10" transform="translate(361 407)" fill="#707070" font-size="16" font-family="SegoeUI, Segoe UI"><tspan x="0" y="0">10</tspan></text>
      </g>
      <g transform="translate(389 -390)">
        <text id="_10-26" data-name="10" transform="translate(361 407)" fill="#707070" font-size="16" font-family="SegoeUI, Segoe UI"><tspan x="0" y="0">10</tspan></text>
      </g>
      <g transform="translate(439 -390)">
        <text id="_10-27" data-name="10" transform="translate(361 407)" fill="#707070" font-size="16" font-family="SegoeUI, Segoe UI"><tspan x="0" y="0">10</tspan></text>
      </g>
      <g transform="translate(489 -390)">
        <text id="_10-28" data-name="10" transform="translate(361 407)" fill="#707070" font-size="16" font-family="SegoeUI, Segoe UI"><tspan x="0" y="0">10</tspan></text>
      </g>
    </g>
    <path id="Path_257" data-name="Path 257" d="M1480,1994.2l165.407,50.406,203.426-187.223,88.211,41.405,244.831-109.814L2360.1,1940.194" transform="translate(-1072 -1169)" fill="none" stroke="#385a64" stroke-width="5"/>
    <path id="Path_259" data-name="Path 259" d="M1484.186,2090.336l161.221-45.729,149.932-309.2,183.379,33.127L2170.378,1924.7l185.745,143.154V2122H1484.186Z" transform="translate(-1072 -1191)" fill="#92c1ff" stroke="#92c1ff" stroke-width="5" opacity="0.67"/>
    <path id="Path_260" data-name="Path 260" d="M1485.992,1916.608l159.415,128,471.463-362.881,198.93,88.414,40.322,297.718" transform="translate(-1076 -1222)" fill="none" stroke="#a9c8ff" stroke-width="5"/>
    <path id="Path_258" data-name="Path 258" d="M1481.553,1810.747l163.853,233.86,203.426-187.223,105.061,258.149,227.981-326.557L2360.1,1940.194" transform="translate(-1072 -1249)" fill="none" stroke="#5892df" stroke-width="5"/>
    <path id="Path_261" data-name="Path 261" d="M412.186,775.639,638.057,549.03l127.572,260.18,224.93-213.18L1285.99,931.747" fill="none" stroke="#c9dbfa" stroke-width="5"/>
  </g>
</svg>
